<svg viewBox="0 0 24 24" fill="none" xmlns="http://www.w3.org/2000/svg" id="Cloud--Streamline-Solar-Broken" height="24" width="24">
  <desc>
    Cloud Streamline Icon: https://streamlinehq.com
  </desc>
  <path d="M22 14.3529C22 17.4717 19.4416 20 16.2857 20H11m3.381 -10.97279c0.5957 -0.2081 1.2368 -0.32133 1.9047 -0.32133 0.6547 0 1.2836 0.1088 1.8694 0.3091M7.11616 11.6089c-0.26866 -0.0522 -0.54633 -0.0795 -0.83045 -0.0795C3.91878 11.5294 2 13.4256 2 15.7647 2 18.1038 3.91878 20 6.28571 20H7m0.11616 -8.3911c-0.2291 -0.6111 -0.35426 -1.272 -0.35426 -1.96184C6.7619 6.52827 9.32028 4 12.4762 4c2.9397 0 5.3609 2.19371 5.6789 5.01498M7.11616 11.6089c0.56443 0.1095 1.08912 0.3285 1.55051 0.6337m9.48843 -3.22762c0.683 0.23355 1.3072 0.5915 1.8449 1.04642" stroke="#000000" stroke-linecap="round" stroke-width="1.5"></path>
</svg>