<svg viewBox="0 0 24 24" fill="none" xmlns="http://www.w3.org/2000/svg" id="Fog--Streamline-Solar-Broken" height="24" width="24">
  <desc>
    Fog Streamline Icon: https://streamlinehq.com
  </desc>
  <path d="M22 12.3529c0 1.3903 -0.5084 2.6632 -1.3514 3.6471M14.381 7.02721c0.5957 -0.2081 1.2368 -0.32133 1.9047 -0.32133 0.6547 0 1.2836 0.1088 1.8694 0.3091M7.11616 9.60887c-0.26866 -0.05214 -0.54633 -0.07946 -0.83045 -0.07946C3.91878 9.52941 2 11.4256 2 13.7647c0 0.8205 0.2361 1.5865 0.64482 2.2353m4.47134 -6.39113c-0.2291 -0.61107 -0.35426 -1.272 -0.35426 -1.96181C6.7619 4.52827 9.32028 2 12.4762 2c2.9397 0 5.3609 2.19371 5.6789 5.01498M7.11616 9.60887c0.56443 0.10952 1.08912 0.32853 1.55051 0.63373m9.48843 -3.22762c0.683 0.23355 1.3072 0.5915 1.8449 1.04643" stroke="#000000" stroke-linecap="round" stroke-width="1.5"></path>
  <path d="M8 22h8" stroke="#000000" stroke-linecap="round" stroke-linejoin="round" stroke-width="1.5"></path>
  <path d="M5 19h6m8 0h-4" stroke="#000000" stroke-linecap="round" stroke-linejoin="round" stroke-width="1.5"></path>
  <path d="M2 16h20" stroke="#000000" stroke-linecap="round" stroke-linejoin="round" stroke-width="1.5"></path>
</svg>