<svg viewBox="0 0 24 24" fill="none" xmlns="http://www.w3.org/2000/svg" id="Cloud-Rain--Streamline-Solar-Broken" height="24" width="24">
  <desc>
    Cloud Rain Streamline Icon: https://streamlinehq.com
  </desc>
  <path d="M22 13.3529c0 1.941 -0.9909 3.6532 -2.5 4.6697m-5.119 -9.99539c0.5957 -0.2081 1.2368 -0.32133 1.9047 -0.32133 0.6547 0 1.2836 0.1088 1.8694 0.3091M7.11616 10.6089c-0.26866 -0.0522 -0.54633 -0.0795 -0.83045 -0.0795C3.91878 10.5294 2 12.4256 2 14.7647c0 1.3099 0.60178 2.481 1.54704 3.2579m3.56912 -7.4137c-0.2291 -0.6111 -0.35426 -1.27203 -0.35426 -1.96184C6.7619 5.52827 9.32028 3 12.4762 3c2.9397 0 5.3609 2.19371 5.6789 5.01498M7.11616 10.6089c0.56443 0.1095 1.08912 0.3285 1.55051 0.6337m9.48843 -3.22762c0.683 0.23355 1.3072 0.5915 1.8449 1.04643" stroke="#000000" stroke-linecap="round" stroke-width="1.5"></path>
  <path d="m17 19 -2 2" stroke="#000000" stroke-linecap="round" stroke-width="1.5"></path>
  <path d="m16 15.5 -2 2" stroke="#000000" stroke-linecap="round" stroke-width="1.5"></path>
  <path d="m12 20 -2 2" stroke="#000000" stroke-linecap="round" stroke-width="1.5"></path>
  <path d="m11.5 15.5 -2 2" stroke="#000000" stroke-linecap="round" stroke-width="1.5"></path>
  <path d="m7.5 19 -2 2" stroke="#000000" stroke-linecap="round" stroke-width="1.5"></path>
</svg>