<svg viewBox="0 0 24 24" fill="none" xmlns="http://www.w3.org/2000/svg" id="Snowflake--Streamline-Solar-Broken" height="24" width="24">
  <desc>
    Snowflake Streamline Icon: https://streamlinehq.com
  </desc>
  <path d="M12 2v16m0 4v-4m0 0 3 3m-3 -3 -3 3m6 -18 -3 3 -3 -3" stroke="#000000" stroke-linecap="round" stroke-width="1.5"></path>
  <path d="m3.33978 6.99993 3.46411 2m0 0L17.1962 14.9999M6.80389 8.99993 5.70581 4.90186m1.09808 4.09807L2.70581 10.098m14.49039 4.9019 3.4641 2m-3.4641 -2 4.0981 -1.098m-4.0981 1.098 1.0981 4.0981" stroke="#000000" stroke-linecap="round" stroke-width="1.5"></path>
  <path d="m20.66 6.99993 -3.4641 2m0 0L6.80364 14.9999M17.1959 8.99993l1.0981 -4.09807m-1.0981 4.09807L21.294 10.098M6.80364 14.9999l-3.4641 2m3.4641 -2 -4.09807 -1.098m4.09807 1.098L5.70557 19.098" stroke="#000000" stroke-linecap="round" stroke-width="1.5"></path>
</svg>