<svg viewBox="0 0 24 24" fill="none" xmlns="http://www.w3.org/2000/svg" id="Sun-2--Streamline-Solar-Broken" height="24" width="24">
  <desc>
    Sun 2 Streamline Icon: https://streamlinehq.com
  </desc>
  <path d="M7.28451 10.3333C7.10026 10.8546 7 11.4156 7 12c0 2.7614 2.23858 5 5 5 2.7614 0 5 -2.2386 5 -5 0 -2.76142 -2.2386 -5 -5 -5 -0.5844 0 -1.1454 0.10026 -1.6667 0.28451" stroke="#000000" stroke-linecap="round" stroke-width="1.5"></path>
  <path d="M12 2v2" stroke="#000000" stroke-linecap="round" stroke-width="1.5"></path>
  <path d="M12 20v2" stroke="#000000" stroke-linecap="round" stroke-width="1.5"></path>
  <path d="m4 12 -2 0" stroke="#000000" stroke-linecap="round" stroke-width="1.5"></path>
  <path d="m22 12 -2 0" stroke="#000000" stroke-linecap="round" stroke-width="1.5"></path>
  <path d="m19.7778 4.22217 -2.222 2.03158" stroke="#000000" stroke-linecap="round" stroke-width="1.5"></path>
  <path d="m4.22217 4.22217 2.22201 2.03158" stroke="#000000" stroke-linecap="round" stroke-width="1.5"></path>
  <path d="m6.44434 17.5557 -2.22223 2.2222" stroke="#000000" stroke-linecap="round" stroke-width="1.5"></path>
  <path d="m19.7778 19.7778 -2.222 -2.2223" stroke="#000000" stroke-linecap="round" stroke-width="1.5"></path>
</svg>