<svg viewBox="0 0 24 24" fill="none" xmlns="http://www.w3.org/2000/svg" id="Cloud-Snowfall--Streamline-Solar-Broken" height="24" width="24">
  <desc>
    Cloud Snowfall Streamline Icon: https://streamlinehq.com
  </desc>
  <path d="M12.001 15v7" stroke="#000000" stroke-linecap="round" stroke-width="1.5"></path>
  <path d="m9.00293 16.7314 5.99867 3.4634" stroke="#000000" stroke-linecap="round" stroke-width="1.5"></path>
  <path d="m14.999 16.7314 -5.99869 3.4634" stroke="#000000" stroke-linecap="round" stroke-width="1.5"></path>
  <path d="M22 13.3529c0 2.707 -1.9274 4.9692 -4.5 5.5193M6.28571 19C3.91878 19 2 17.1038 2 14.7647c0 -2.3391 1.91878 -4.2353 4.28571 -4.2353 0.28412 0 0.56179 0.0273 0.83045 0.0795M14.381 8.02721c0.5957 -0.2081 1.2368 -0.32133 1.9047 -0.32133 0.6547 0 1.2836 0.1088 1.8694 0.3091M7.11616 10.6089c-0.2291 -0.6111 -0.35426 -1.27203 -0.35426 -1.96184C6.7619 5.52827 9.32028 3 12.4762 3c2.9397 0 5.3609 2.19371 5.6789 5.01498M7.11616 10.6089c0.56443 0.1095 1.08912 0.3285 1.55051 0.6337m9.48843 -3.22762c0.683 0.23355 1.3072 0.5915 1.8449 1.04643" stroke="#000000" stroke-linecap="round" stroke-width="1.5"></path>
</svg>