<svg viewBox="0 0 24 24" fill="none" xmlns="http://www.w3.org/2000/svg" id="Cloud-Sun-2--Streamline-Solar-Broken" height="24" width="24">
  <desc>
    Cloud Sun 2 Streamline Icon: https://streamlinehq.com
  </desc>
  <path d="M22 16.3529C22 19.4717 19.4416 22 16.2857 22H11m3.381 -10.9728c0.5957 -0.2081 1.2368 -0.3213 1.9047 -0.3213 0.6547 0 1.2836 0.1088 1.8694 0.3091M7.11616 13.6089c-0.26866 -0.0522 -0.54633 -0.0795 -0.83045 -0.0795C3.91878 13.5294 2 15.4256 2 17.7647 2 20.1038 3.91878 22 6.28571 22H7m0.11616 -8.3911c-0.2291 -0.6111 -0.35426 -1.272 -0.35426 -1.9618C6.7619 8.52827 9.32028 6 12.4762 6c2.9397 0 5.3609 2.19371 5.6789 5.015M7.11616 13.6089c0.56443 0.1095 1.08912 0.3285 1.55051 0.6337m9.48843 -3.2276c0.683 0.2335 1.3072 0.5915 1.8449 1.0464" stroke="#000000" stroke-linecap="round" stroke-width="1.5"></path>
  <path d="M8 4.5C6.067 4.5 4.5 6.067 4.5 8c0 1.3962 0.81753 2.6015 2 3.1632M8 4.5c0.74362 0 1.43308 0.23191 2 0.62734M8 4.5c-0.74362 0 -1.43308 0.23191 -2 0.62734M8 4.5c0.95365 0 1.81822 0.38141 2.4495 1M8 4.5c-0.95365 0 -1.81822 0.38141 -2.44949 1M8 4.5c1.27316 0 2.3876 0.67979 3 1.69621" stroke="#000000" stroke-width="1.5"></path>
  <path d="M7.5 2v0.5" stroke="#000000" stroke-linecap="round" stroke-width="1.5"></path>
  <path d="m2.5 7.5 -0.5 0" stroke="#000000" stroke-linecap="round" stroke-width="1.5"></path>
  <path d="m11.3887 3.61084 -0.2161 0.21606" stroke="#000000" stroke-linecap="round" stroke-width="1.5"></path>
  <path d="m3.82715 11.1729 -0.21606 0.216" stroke="#000000" stroke-linecap="round" stroke-width="1.5"></path>
  <path d="m3.82715 3.82715 -0.21606 -0.21606" stroke="#000000" stroke-linecap="round" stroke-width="1.5"></path>
</svg>