<?xml version="1.0" encoding="UTF-8"?>
<svg version="1.1" xmlns="http://www.w3.org/2000/svg" width="835" height="833">
<path d="M0 0 C30.03 0 60.06 0 91 0 C91.33 14.19 91.66 28.38 92 43 C93.32 48.28 94.64 53.56 96 59 C96.33 60.32 96.66 61.64 97 63 C97.99 63.33 98.98 63.66 100 64 C100.46148438 64.49757813 100.92296875 64.99515625 101.3984375 65.5078125 C104.53427305 68.42949343 108.90049568 68.08937873 113 68 C128.97085618 65.29441088 141.78024006 48.37347136 152.42626953 37.4777832 C153.80068425 36.07338726 155.18148452 34.67524934 156.5625 33.27734375 C157.36816406 32.45484131 158.17382812 31.63233887 159.00390625 30.78491211 C161 29 161 29 163 29 C166.35554573 32.09063422 169.15743072 35.4467884 172 39 C173.6454378 40.68762851 175.31288577 42.3540349 177 44 C179.51090797 46.51090797 182.0202539 49.02076025 184.5 51.5625 C186.92763704 54.00896893 186.92763704 54.00896893 189.5 56 C193.00729178 58.80583343 196.08511806 61.80118918 198.8125 65.375 C201.31159325 68.3739119 204.08535632 70.76959114 207.04296875 73.3046875 C210.26925466 76.09951401 213.22144903 78.97982976 215.8125 82.375 C218.37172806 85.44607367 221.26106399 87.78109618 224.390625 90.25390625 C226 92 226 92 226 96 C223.67197287 98.66060243 221.2220345 100.82670478 218.4375 103 C215.93574543 104.90744373 215.93574543 104.90744373 214.125 107.375 C212.32397164 109.59979974 210.68025831 111.19084948 208.5 113 C205.58295035 115.42569161 203.30819429 117.97546955 201 121 C199.66666667 122.33333333 198.33333333 123.66666667 197 125 C191.90134076 130.9898883 187.51857481 137.9810452 186.5 145.875 C187.02372386 149.14827414 187.63117105 151.97416759 189 155 C189.99 155.33 190.98 155.66 192 156 C192 156.66 192 157.32 192 158 C192.58007812 158.19335938 193.16015625 158.38671875 193.7578125 158.5859375 C194.92957031 158.97652344 194.92957031 158.97652344 196.125 159.375 C196.95 159.64828125 197.775 159.9215625 198.625 160.203125 C200.46616412 160.82088401 202.29776091 161.46719393 204.125 162.125 C219.37768775 166.76712236 243.35472326 164.71596886 255 165 C255 195.03 255 225.06 255 256 C241.8 256.33 228.6 256.66 215 257 C200.60964266 258.52293187 200.60964266 258.52293187 190 266 C187.02162622 270.37448649 186.36699981 273.75514125 187 279 C187.87395461 281.11308275 188.88223592 283.07552972 189.9921875 285.07421875 C191 287 191 287 192 290.375 C193.23771199 293.62399399 194.01237718 293.50889968 197 295 C198.74609375 296.76953125 198.74609375 296.76953125 200.4375 298.8125 C202.51905325 301.28434448 204.59655844 303.64711528 206.9375 305.875 C209 308 209 308 209 310 C209.5887793 310.26280762 210.17755859 310.52561523 210.78417969 310.79638672 C213.10339241 312.05616181 214.60949403 313.38004021 216.453125 315.2578125 C217.38125 316.19560547 217.38125 316.19560547 218.328125 317.15234375 C218.96234375 317.80332031 219.5965625 318.45429688 220.25 319.125 C221.22453125 320.11306641 221.22453125 320.11306641 222.21875 321.12109375 C223.81712206 322.74297128 225.40973706 324.37018259 227 326 C223.18091451 330.55261693 219.24208201 334.91614578 215.05810547 339.13476562 C214.49794739 339.7031012 213.93778931 340.27143677 213.36065674 340.85699463 C211.53247038 342.70971136 209.70040729 344.55851419 207.8671875 346.40625 C207.23779392 347.04096725 206.60840034 347.67568451 205.95993423 348.32963562 C202.63876077 351.67737711 199.31403285 355.02154631 195.98681641 358.36328125 C193.23498109 361.12853855 190.49062944 363.90091689 187.75244141 366.6796875 C184.43677311 370.04447578 181.10918144 373.39700825 177.77243423 376.7408905 C176.50428544 378.01577044 175.24041003 379.29491578 173.98089218 380.57832336 C172.22642075 382.36420583 170.45705586 384.13388599 168.68310547 385.90039062 C168.16457001 386.43533142 167.64603455 386.97027222 167.11178589 387.52142334 C165.64254761 388.9654541 165.64254761 388.9654541 163 391 C159.67423162 390.9502478 158.94014785 389.94452728 156.4375 387.625 C155.633125 386.75875 154.82875 385.8925 154 385 C153.1028125 384.1646875 153.1028125 384.1646875 152.1875 383.3125 C151 382 151 382 151 380 C150.071875 379.62875 150.071875 379.62875 149.125 379.25 C146.59641373 377.76259631 146.28160996 376.56321991 145 374 C144.34 373.67 143.68 373.34 143 373 C140.47154472 371.73577236 140.23577236 370.47154472 139 368 C137.68352881 367.30062468 136.34977849 366.63270867 135 366 C134.34 365.01 133.68 364.02 133 363 C132.13375 362.484375 131.2675 361.96875 130.375 361.4375 C129.59125 360.963125 128.8075 360.48875 128 360 C128 359.34 128 358.68 128 358 C127.195625 357.7525 126.39125 357.505 125.5625 357.25 C122.73555118 356.25808813 120.19188412 355.15945232 117.5 353.875 C113.76224048 352.22140021 111.12869616 351.20939861 107 352 C100.99010299 354.75307173 98.82246102 357.26630846 95 363 C90.77419485 383.16968711 90.77419485 383.16968711 91 421 C60.97 421 30.94 421 0 421 C-0.33 407.8 -0.66 394.6 -1 381 C-3.19720283 366.56070484 -3.19720283 366.56070484 -10.75 355.0625 C-14.53885201 352.65803622 -17.55867993 351.58485015 -22 352 C-28.6690949 353.92436479 -35.24671262 356.83338328 -40 362 C-41.33333333 363.33333333 -42.66666667 364.66666667 -44 366 C-41.05771025 365.0420452 -38.19631551 364.0888094 -35.375 362.8125 C-32.58270527 361.85724127 -31.66504723 361.75803624 -29 363 C-27.62109375 365.73046875 -27.62109375 365.73046875 -26.4375 369.1875 C-24.88092066 373.65309647 -23.13388977 377.78236409 -21 382 C-20.18218951 384.03133574 -19.39106537 386.07359006 -18.625 388.125 C-16.64010592 393.35897666 -14.55603922 398.5354777 -12.38671875 403.6953125 C-7.28370912 415.85628756 -2.26667908 428.05383746 2.4375 440.375 C6.85481137 451.9681494 6.85481137 451.9681494 12.125 463.1875 C13.97145176 466.74584428 15.21158236 470.38744421 16.38671875 474.21484375 C16.85412962 476.00046301 16.85412962 476.00046301 18 477 C18.04063832 478.66617115 18.042721 480.33388095 18 482 C16.58460938 482.56267578 16.58460938 482.56267578 15.140625 483.13671875 C6.04625291 486.75898273 -3.00983421 490.46153181 -12.0234375 494.28125 C-16.85396067 496.31776877 -21.67668675 498.26704641 -26.625 500 C-31.29867735 501.65511941 -35.62813798 503.72246689 -40.00390625 506.046875 C-42 507 -42 507 -44 507 C-44 507.66 -44 508.32 -44 509 C-45.68437037 510.30973808 -47.42446157 511.54824593 -49.1875 512.75 C-56.22304224 517.77151667 -60.87113991 522.41955629 -63 531 C-63.83829288 537.49676979 -62.25920132 541.21821096 -59.09375 546.8984375 C-58 549 -58 549 -58 551 C-57.34 551 -56.68 551 -56 551 C-55.46375 551.70125 -54.9275 552.4025 -54.375 553.125 C-48.88488645 559.77092692 -42.03463005 563.1173745 -34.2421875 566.5546875 C-30.61708909 568.17069523 -27.11361916 569.96338837 -23.609375 571.82421875 C-21.36261781 572.83660485 -19.19966456 573.61336411 -16.859375 574.3671875 C-11.59835764 576.07761525 -6.56790004 578.22813164 -1.5 580.4375 C-0.61441406 580.81970703 0.27117188 581.20191406 1.18359375 581.59570312 C6.80551426 584.02691544 12.40760755 586.50168915 18 589 C16.22776373 596.28983073 13.52693842 603.21078413 10.0625 609.85546875 C7.78469047 614.4529593 5.94036018 619.25294147 4 624 C1.534117 629.98973561 -0.97149112 635.95666227 -3.59082031 641.88085938 C-6.51666689 648.49936947 -9.26483261 655.1451119 -11.8203125 661.91796875 C-13.76328293 666.99413983 -15.88864043 671.99211902 -18 677 C-18.83425883 678.99961413 -19.66759029 680.99961541 -20.5 683 C-20.91121094 683.98355469 -21.32242188 684.96710937 -21.74609375 685.98046875 C-22.60201982 688.04162405 -23.44795392 690.10694997 -24.28515625 692.17578125 C-26.5362642 697.70373136 -28.87669499 702.91016961 -32 708 C-37.0870931 706.90990862 -41.28439926 705.49113711 -45.875 703.0703125 C-49.79519561 701.09580221 -53.91145884 699.58724332 -58 698 C-67.23379571 694.39092055 -67.23379571 694.39092055 -71.0625 692.4375 C-74.1708557 690.91638977 -77.25894538 689.86463568 -80.55859375 688.84375 C-83 688 -83 688 -86.265625 686.515625 C-90.19005193 684.81242266 -94.10758321 683.96579119 -98.3125 683.25 C-99.43289673 683.05833252 -99.43289673 683.05833252 -100.57592773 682.86279297 C-106.22975958 681.97166327 -111.37834759 681.68451278 -117 683 C-117.71542969 683.165 -118.43085938 683.33 -119.16796875 683.5 C-125.97912993 685.54462625 -129.35003526 690.15523321 -132.8125 696.125 C-136.05923548 703.98551748 -135.42886767 711.68308525 -133.25 719.75 C-133.06880615 720.44319336 -132.8876123 721.13638672 -132.70092773 721.85058594 C-129.64524112 733.32230255 -125.7761195 744.59299636 -120.375 755.1875 C-118.83483922 758.33782887 -117.816322 761.51497655 -116.74609375 764.84765625 C-115.75516788 767.7062958 -114.37421262 770.30654327 -113 773 C-112.22923937 774.7200132 -111.48062881 776.45005967 -110.75 778.1875 C-110.39421875 779.02667969 -110.0384375 779.86585938 -109.671875 780.73046875 C-109 783 -109 783 -110 786 C-112.484375 787.2109375 -112.484375 787.2109375 -115.75 788.375 C-117.50763672 789.01695312 -117.50763672 789.01695312 -119.30078125 789.671875 C-120.52152344 790.11015625 -121.74226563 790.5484375 -123 791 C-125.31518351 791.86787474 -127.6278175 792.74258966 -129.9375 793.625 C-131.46697266 794.20121094 -131.46697266 794.20121094 -133.02734375 794.7890625 C-136.10820666 796.04407893 -139.03194946 797.50001747 -142 799 C-143.51143629 799.6473943 -145.03220865 800.27352896 -146.5625 800.875 C-147.42230469 801.21402344 -148.28210938 801.55304687 -149.16796875 801.90234375 C-152.23332026 803.09043172 -155.30394216 804.26424557 -158.375 805.4375 C-169.4467566 809.65155013 -169.4467566 809.65155013 -180.1875 814.625 C-182.51887997 815.76478576 -184.63512537 816.56536929 -187.09375 817.34375 C-191.94892409 818.93912642 -196.61929079 820.85879771 -201.3125 822.875 C-202.1377417 823.22506104 -202.9629834 823.57512207 -203.81323242 823.93579102 C-207.44396139 825.47611102 -211.06922499 827.02832053 -214.6875 828.59765625 C-215.71875 829.03980469 -216.75 829.48195313 -217.8125 829.9375 C-218.68519531 830.31777344 -219.55789063 830.69804688 -220.45703125 831.08984375 C-223.28831482 832.10319102 -226.02642186 832.58760595 -229 833 C-232.22127331 826.83892386 -235.24589509 820.81965811 -237.30859375 814.171875 C-238.63021828 810.02033127 -240.33527107 806.02351403 -242 802 C-242.28536621 801.30519531 -242.57073242 800.61039063 -242.86474609 799.89453125 C-250.08383546 780.25472622 -250.08383546 780.25472622 -261.6875 763.3125 C-262.450625 762.549375 -263.21375 761.78625 -264 761 C-264 760.34 -264 759.68 -264 759 C-265.65 758.34 -267.3 757.68 -269 757 C-269 756.34 -269 755.68 -269 755 C-277.55058045 752.17111637 -284.35476254 751.02394426 -292.875 754.375 C-295.56038246 755.77139888 -297.06208456 756.77139724 -299 759 C-299.99 759.66 -300.98 760.32 -302 761 C-302.33 761.99 -302.66 762.98 -303 764 C-303.721875 764.680625 -304.44375 765.36125 -305.1875 766.0625 C-310.4686946 771.14469307 -313.87331486 777.98218787 -316.2421875 784.84375 C-319.29855411 793.54021582 -323.28224063 801.92523273 -327.04418945 810.33398438 C-329.45090188 815.72575317 -331.7642698 821.14866223 -333.9921875 826.6171875 C-334.9136138 828.79575357 -335.91521658 830.89884292 -337 833 C-342.79067236 831.46369917 -348.0979123 829.33254566 -353.53515625 826.8359375 C-358.78938858 824.42682394 -364.05654438 822.13615151 -369.43359375 820.015625 C-378.29149546 816.51021489 -387.00693778 812.69996598 -395.68164062 808.76660156 C-399.73925642 806.9415682 -403.76663039 805.3845753 -408 804 C-409.2862663 803.38547819 -410.55947736 802.74224431 -411.8125 802.0625 C-414.60355557 800.6246835 -417.31790817 799.50365743 -420.3125 798.5625 C-424.80248937 797.14298446 -428.97883437 795.24307519 -433.2421875 793.25390625 C-435.82311804 792.08042367 -438.4191295 791.02337385 -441.0625 790 C-446.2072946 787.98502427 -451.09921335 785.54423817 -456 783 C-452.74307567 772.6864063 -448.91401161 762.45229375 -443.91796875 752.84765625 C-442.50100134 749.99563248 -441.35371019 747.05542479 -440.20703125 744.0859375 C-439.25714876 741.65743535 -438.27188946 739.25497883 -437.26171875 736.8515625 C-431.17241779 722.14565508 -426.91096411 706.52704152 -433 691 C-437.20241716 684.30239765 -442.86145868 682.23189989 -450.37890625 680.4296875 C-457.85718232 679.27160191 -464.77510327 681.11271397 -472 683 C-472.92425781 683.24105469 -473.84851563 683.48210938 -474.80078125 683.73046875 C-479.64694332 685.09462946 -484.16690244 686.86068574 -488.734375 688.96875 C-493.71725029 691.23681737 -498.84009777 693.18505008 -503.9609375 695.1171875 C-508.77825311 696.93706229 -513.55883906 698.77498033 -518.24609375 700.91015625 C-518.9632959 701.2352417 -519.68049805 701.56032715 -520.41943359 701.89526367 C-521.82424225 702.53749392 -523.2245504 703.18968216 -524.61962891 703.8527832 C-527.27509704 705.06595983 -529.42482358 706.01608224 -532.375 705.93359375 C-534 705 -534 705 -534.87109375 703.35546875 C-535.05800781 702.64003906 -535.24492188 701.92460938 -535.4375 701.1875 C-537.59280702 693.83134343 -540.52275129 686.73827705 -544.0625 679.9375 C-546.08219443 676.01977947 -547.5280623 671.95938072 -548.99609375 667.80859375 C-550.92741454 662.40540445 -552.95329368 657.05154439 -555.5625 651.9375 C-557.08939766 648.81731783 -558.12670913 645.71296859 -559.19140625 642.4140625 C-561.57142704 635.30849319 -564.65660956 628.51274626 -567.78125 621.7109375 C-571.13929444 614.24144122 -573.95491296 606.53956129 -576.8515625 598.8828125 C-577.90751533 596.08018118 -577.90751533 596.08018118 -579.140625 593.8515625 C-580.48554462 590.95387205 -580.12071469 588.13858194 -580 585 C-579.34515625 584.76925781 -578.6903125 584.53851562 -578.015625 584.30078125 C-570.90658276 581.76040316 -563.95209102 578.93887884 -557 576 C-554.87510696 575.12474029 -552.75010879 574.24973576 -550.625 573.375 C-547.61647777 572.1263267 -544.71603457 570.85523331 -541.8125 569.375 C-539.4016128 568.19634404 -537.17113836 567.37086651 -534.625 566.5625 C-530.80302753 565.33998355 -527.34931427 563.77234205 -523.796875 561.91796875 C-521.587699 560.78936797 -519.32164642 559.87061741 -517 559 C-517 558.34 -517 557.68 -517 557 C-516.05125 556.7525 -515.1025 556.505 -514.125 556.25 C-510.95023986 555.34566709 -510.95023986 555.34566709 -509.875 553.125 C-509.58625 552.42375 -509.2975 551.7225 -509 551 C-507.68671343 549.64691687 -506.35500919 548.31129922 -505 547 C-504.67 546.34 -504.34 545.68 -504 545 C-503.34 545 -502.68 545 -502 545 C-499.6637569 535.80104278 -498.78185216 528.43756014 -503.8125 519.9375 C-509.28512884 512.58854127 -515.97922851 507.15036364 -524.1875 503.1875 C-524.87094482 502.85129639 -525.55438965 502.51509277 -526.25854492 502.16870117 C-533.27413461 498.77095634 -540.45740753 495.7826652 -547.66015625 492.80859375 C-551.05944933 491.40296966 -554.41414304 489.92644611 -557.75 488.375 C-563.38044155 485.7681499 -569.13921854 483.50726928 -574.91015625 481.234375 C-578 480 -578 480 -580 479 C-579.37735485 470.07541953 -575.67716182 461.48092585 -571.02734375 453.91796875 C-569.05866749 450.24260737 -567.73797843 446.28079806 -566.27734375 442.3828125 C-563.27476789 434.43103667 -559.8580628 426.65353931 -556.4375 418.875 C-553.83724001 412.96035815 -551.35491069 407.0171102 -549 401 C-543.14671073 386.19931214 -543.14671073 386.19931214 -540.0703125 379.46484375 C-539.16756616 377.38589142 -538.31993487 375.30077734 -537.4921875 373.19140625 C-537.22535156 372.51207031 -536.95851563 371.83273437 -536.68359375 371.1328125 C-536.15287007 369.77395477 -535.62667245 368.41331883 -535.10546875 367.05078125 C-533.99762713 364.21376886 -533.17830523 362.17830523 -531 360 C-525.65905607 360.28810071 -520.92446773 362.37974943 -516.28125 364.8671875 C-512.42118042 366.78400288 -508.36939714 368.20407313 -504.33984375 369.72265625 C-501.30292885 370.884143 -498.30674471 372.10836389 -495.3125 373.375 C-493.20936149 374.25246839 -491.10506668 375.12716747 -489 376 C-487.96818604 376.43046631 -487.96818604 376.43046631 -486.91552734 376.86962891 C-472.64044994 382.78372246 -456.39232421 388.96235131 -441.0703125 383.03125 C-435.80043687 380.40625535 -432.1866042 377.35994221 -430.125 371.75 C-429.71205561 370.17613648 -429.33665356 368.59192771 -429 367 C-428.82339844 366.29617188 -428.64679688 365.59234375 -428.46484375 364.8671875 C-425.77328815 349.86764466 -433.32432975 333.65558156 -439.06445312 320.21972656 C-440.34789361 317.17456974 -441.52161982 314.09179618 -442.6875 311 C-445.61165249 303.35599063 -448.54316348 295.7107268 -452.3125 288.4375 C-454 285 -454 285 -454 282 C-453.34515625 281.76925781 -452.6903125 281.53851563 -452.015625 281.30078125 C-443.80659779 278.36732944 -435.58765225 275.33880311 -427.8125 271.375 C-425.48112003 270.23521424 -423.36487463 269.43463071 -420.90625 268.65625 C-416.05112586 267.06089 -411.38048086 265.14165084 -406.6875 263.125 C-405.00916717 262.41133465 -403.33078187 261.69779268 -401.65234375 260.984375 C-400.85038574 260.64212891 -400.04842773 260.29988281 -399.22216797 259.94726562 C-391.37806724 256.60348285 -383.48768379 253.38328555 -375.56542969 250.22998047 C-370.72987366 248.30194164 -365.92474538 246.30807924 -361.125 244.29296875 C-356.79311764 242.50065242 -352.43660175 240.77132503 -348.07421875 239.0546875 C-345.61791473 238.08163344 -343.23591243 237.13448796 -340.9375 235.82421875 C-338.25650304 234.683714 -335.87722672 234.86921697 -333 235 C-330.50077495 240.86908178 -328.05624369 246.73141734 -325.9375 252.75 C-324.54188827 256.6678016 -322.91715836 260.29983627 -321 263.984375 C-318.19683976 269.63449487 -316.13108449 275.61428114 -314.0625 281.5625 C-312.45097208 286.08248271 -310.42057932 290.11270975 -307.953125 294.22265625 C-307 296 -307 296 -307 298 C-306.34 298 -305.68 298 -305 298 C-303 301 -303 301 -303 304 C-302.38125 304.2475 -301.7625 304.495 -301.125 304.75 C-299 306 -299 306 -298.0625 308 C-296.56410005 310.82051756 -294.99587668 311.00137444 -292 312 C-290.9275 312.53625 -289.855 313.0725 -288.75 313.625 C-282.18232299 316.03314824 -275.43516721 315.82244176 -269 313 C-263.32166991 308.6530796 -258.73766856 304.0737114 -255 298 C-254.34 298 -253.68 298 -253 298 C-252.7525 297.154375 -252.505 296.30875 -252.25 295.4375 C-251.12713065 292.34960928 -249.72788373 289.76958278 -248.0625 286.953125 C-245.98759131 283.13895461 -244.55871689 279.04511304 -243 275 C-242.024209 272.54024984 -241.04565422 270.08179834 -240.0625 267.625 C-239.80557373 266.98199951 -239.54864746 266.33899902 -239.28393555 265.67651367 C-237.30854046 260.74330775 -235.29455984 255.82782281 -233.21484375 250.9375 C-232.35174399 248.85051922 -231.53612883 246.74362167 -230.75390625 244.625 C-230.34011719 243.531875 -229.92632812 242.43875 -229.5 241.3125 C-229.1390625 240.31863281 -228.778125 239.32476562 -228.40625 238.30078125 C-227 236 -227 236 -224.66015625 235.03515625 C-221.48147364 234.99314723 -219.76957057 235.69828572 -216.9375 237.125 C-212.99596659 239.04021489 -209.0576438 240.84317275 -205 242.5 C-201.10196633 244.10448096 -197.25946811 245.78471398 -193.4375 247.5625 C-188.97357465 249.61539404 -184.4570803 251.32877727 -179.828125 252.96875 C-172.67723982 255.57625509 -165.73361927 258.56860749 -158.96484375 262.04296875 C-155.07847079 263.93593371 -151.02483995 265.4302581 -147 267 C-144.54064829 267.97670624 -142.08216075 268.95531842 -139.625 269.9375 C-138.98191895 270.19442627 -138.33883789 270.45135254 -137.67626953 270.71606445 C-132.74321928 272.69164606 -127.82775505 274.70546898 -122.9375 276.78515625 C-120.85051922 277.64825601 -118.74362167 278.46387117 -116.625 279.24609375 C-115.531875 279.65988281 -114.43875 280.07367188 -113.3125 280.5 C-112.31863281 280.8609375 -111.32476562 281.221875 -110.30078125 281.59375 C-108 283 -108 283 -107.015625 285.3046875 C-106.99610452 288.67197109 -107.91691764 290.6332851 -109.4375 293.625 C-111.50790002 297.61477759 -111.50790002 297.61477759 -112 302 C-104.37764527 294.04551652 -97.53638925 286.8717061 -96.9296875 275.43359375 C-97.0411703 271.57505022 -97.63699996 268.63466679 -99 265 C-100.76622169 263.57518232 -100.76622169 263.57518232 -103 263 C-104.65 262.01 -106.3 261.02 -108 260 C-127.48057433 255.65339591 -127.48057433 255.65339591 -166 256 C-166 225.97 -166 195.94 -166 165 C-152.47 164.67 -138.94 164.34 -125 164 C-111.71235577 161.7378696 -111.71235577 161.7378696 -99.875 155.875 C-96.73784027 151.06468842 -96.34969568 146.1185048 -97.515625 140.52734375 C-98.83597959 136.32046929 -100.62923073 132.72549457 -103 129 C-103 128.34 -103 127.68 -103 127 C-103.639375 126.7525 -104.27875 126.505 -104.9375 126.25 C-107.544301 124.67012061 -107.29195078 123.83219689 -108 121 C-109.32467746 120.3162955 -110.65863633 119.65035814 -112 119 C-112.66666667 117.66666667 -113.33333333 116.33333333 -114 115 C-115.33066841 114.32802991 -116.66435822 113.66202965 -118 113 C-119.64746094 111.61132813 -119.64746094 111.61132813 -121.234375 110.03125 C-121.80800781 109.46019531 -122.38164062 108.88914062 -122.97265625 108.30078125 C-123.55917969 107.70652344 -124.14570313 107.11226563 -124.75 106.5 C-125.35199219 105.90574219 -125.95398438 105.31148438 -126.57421875 104.69921875 C-127.14269531 104.12816406 -127.71117187 103.55710937 -128.296875 102.96875 C-128.81604492 102.44732422 -129.33521484 101.92589844 -129.87011719 101.38867188 C-131 100 -131 100 -131 98 C-131.639375 97.7525 -132.27875 97.505 -132.9375 97.25 C-135 96 -135 96 -136.0625 94.1875 C-136 92 -136 92 -133.875 89.5 C-132.16603818 88.01394625 -130.42533314 86.56143845 -128.625 85.1875 C-125.6260881 82.68840675 -123.23040886 79.91464368 -120.6953125 76.95703125 C-117.12171374 72.83174789 -113.24906216 69.39924973 -109 66 C-107.31237149 64.3545622 -105.6459651 62.68711423 -104 61 C-103.154375 60.175 -102.30875 59.35 -101.4375 58.5 C-99.00543753 56.10609032 -99.00543753 56.10609032 -97.1875 53.625 C-94.68840675 50.6260881 -91.91464368 48.23040886 -88.95703125 45.6953125 C-85.67776552 42.85459129 -82.71005478 39.88756847 -80 36.5 C-77.80219487 33.75274358 -75.68491893 31.28218109 -73 29 C-70.8125 28.9375 -70.8125 28.9375 -69 30 C-68.3162955 31.32467746 -67.65035814 32.65863633 -67 34 C-66.34 34.33 -65.68 34.66 -65 35 C-62.47154472 36.26422764 -62.23577236 37.52845528 -61 40 C-59.67479497 40.68268138 -58.34187818 41.3507041 -57 42 C-56.67 42.99 -56.34 43.98 -56 45 C-55.360625 45.309375 -54.72125 45.61875 -54.0625 45.9375 C-51.49948282 47.25784218 -51.2592663 48.4814674 -50 51 C-49.34 51.33 -48.68 51.66 -48 52 C-45.47154472 53.26422764 -45.23577236 54.52845528 -44 57 C-42.06669397 58.09166275 -42.06669397 58.09166275 -40 59 C-39.55269531 59.46019531 -39.10539063 59.92039063 -38.64453125 60.39453125 C-36.77701632 62.21768716 -34.90363748 63.35736208 -32.625 64.625 C-31.87476563 65.05039063 -31.12453125 65.47578125 -30.3515625 65.9140625 C-24.98336197 68.3930654 -19.11436157 68.74151466 -13.375 67.375 C-6.66072909 63.48779053 -4.9748428 57.80327881 -2.796875 50.70703125 C0.6274612 34.77715355 -0.41721457 15.01972436 0 0 Z M-16.71875 163.10546875 C-18.18673532 164.89493358 -18.18673532 164.89493358 -18 167 C-18.66 167 -19.32 167 -20 167 C-23.37609669 173.55552755 -26.63898721 180.00980586 -29 187 C-29.37958862 188.04281128 -29.37958862 188.04281128 -29.7668457 189.10668945 C-32.13925966 196.1249268 -32.54024494 202.68826729 -32.5 210.0625 C-32.49572998 211.24755127 -32.49145996 212.43260254 -32.48706055 213.65356445 C-32.26001073 225.44651607 -30.47569802 237.39299301 -23.30859375 247.1640625 C-22 249 -22 249 -20.171875 252.3359375 C-15.04743034 261.40217059 -6.54722674 269.17644939 2 275 C2.7321875 275.50917969 3.464375 276.01835937 4.21875 276.54296875 C14.12753533 282.96716457 26.09115942 287.90853425 38 288 C39.61455078 288.05607422 39.61455078 288.05607422 41.26171875 288.11328125 C59.94644031 288.50383099 78.41200242 284.26717978 93 272 C93 271.34 93 270.68 93 270 C93.556875 269.938125 94.11375 269.87625 94.6875 269.8125 C97.97199875 268.65848693 99.65442984 266.52599863 102 264 C102.598125 263.46375 103.19625 262.9275 103.8125 262.375 C105.32680994 260.92438937 105.32680994 260.92438937 105 258 C105.99 257.67 106.98 257.34 108 257 C112.27113824 251.25959021 115.37238976 244.62899181 118 238 C118.36222656 237.154375 118.72445312 236.30875 119.09765625 235.4375 C125.92025736 217.83078746 124.13473941 196.86603074 116.73583984 179.80566406 C114.52240634 174.92860719 112.23926859 170.28621452 109 166 C108.08347656 164.74896484 108.08347656 164.74896484 107.1484375 163.47265625 C102.96668716 158.05158717 98.44288075 153.36866992 93.25 148.9375 C92.70730469 148.47239014 92.16460938 148.00728027 91.60546875 147.52807617 C88.51837207 144.9780926 85.73105144 143.37911564 82 142 C80.90558594 141.35546875 79.81117188 140.7109375 78.68359375 140.046875 C46.2884212 121.23621192 5.38466464 136.02878582 -16.71875 163.10546875 Z M-128 336 C-130.52304204 339.78456307 -131.16526807 343.29050592 -132.125 347.6875 C-132.30675781 348.46544922 -132.48851562 349.24339844 -132.67578125 350.04492188 C-134.98522227 360.45477069 -134.41667188 370.62941252 -128.78515625 380.02734375 C-124.19129154 385.26035486 -117.13990697 387.38059407 -110.44140625 388.3828125 C-100.95076434 388.81617514 -90.94556779 385.98185593 -82 383 C-83.55603771 379.18063472 -85.95604931 376.73955562 -89 374 C-89.66 374 -90.32 374 -91 374 C-91.2475 373.38125 -91.495 372.7625 -91.75 372.125 C-92.82143729 369.86253506 -92.82143729 369.86253506 -95 369 C-97.55199095 367.72400453 -97.75228377 366.51726174 -99 364 C-100.37584115 362.32163793 -100.37584115 362.32163793 -101.96875 360.765625 C-102.53980469 360.19199219 -103.11085938 359.61835938 -103.69921875 359.02734375 C-104.29347656 358.44082031 -104.88773437 357.85429687 -105.5 357.25 C-106.09425781 356.64800781 -106.68851562 356.04601562 -107.30078125 355.42578125 C-107.87183594 354.85730469 -108.44289063 354.28882813 -109.03125 353.703125 C-109.55267578 353.18395508 -110.07410156 352.66478516 -110.61132812 352.12988281 C-111.96018269 350.78962453 -111.96018269 350.78962453 -114 351 C-114.2475 350.38125 -114.495 349.7625 -114.75 349.125 C-115.82143729 346.86253506 -115.82143729 346.86253506 -118 346 C-120 345 -120 345 -120.875 343.1875 C-122.55805758 339.91488804 -125.11451985 338.25820186 -128 336 Z M-348 446 C-349.2706429 446.87527652 -350.5414574 447.75030402 -351.8125 448.625 C-360.93991952 455.42582239 -367.67618062 464.65727187 -374 474 C-374.680625 474.94875 -375.36125 475.8975 -376.0625 476.875 C-392.03824679 502.64233353 -394.60425933 531.73997225 -389 561 C-385.23987008 576.26030611 -377.514433 589.61613482 -368 602 C-367.11828125 603.2065625 -367.11828125 603.2065625 -366.21875 604.4375 C-362.31184423 609.69406413 -358.07466805 613.88024261 -353 618 C-352.15695312 618.71800781 -351.31390625 619.43601562 -350.4453125 620.17578125 C-349.14207031 621.26439453 -349.14207031 621.26439453 -347.8125 622.375 C-347.01457031 623.04273438 -346.21664062 623.71046875 -345.39453125 624.3984375 C-342.86229615 626.09210209 -340.9982176 626.62721984 -338 627 C-338 627.66 -338 628.32 -338 629 C-322.04086412 637.05108776 -306.15097858 643.9130492 -288 644 C-286.91332031 644.02578125 -285.82664062 644.0515625 -284.70703125 644.078125 C-281.46613693 644.12458943 -278.24007272 644.07951099 -275 644 C-274.02160156 643.99484375 -273.04320312 643.9896875 -272.03515625 643.984375 C-245.04864655 643.01188816 -220.42830515 628.51775308 -201.6875 609.9375 C-201.08873047 609.34791504 -200.48996094 608.75833008 -199.87304688 608.15087891 C-196.4166552 604.67018751 -193.60830145 601.18366936 -191 597 C-190.49597656 596.27296875 -189.99195313 595.5459375 -189.47265625 594.796875 C-172.18224278 569.69943274 -167.77558621 539.29559948 -172.95703125 509.546875 C-174.59481348 502.01641916 -176.9683069 495.66355726 -180.87084961 489.00610352 C-182 487 -182 487 -183.375 483.625 C-189.83640311 469.21110076 -200.95831483 457.00733904 -213 447 C-213.77601563 446.34128906 -214.55203125 445.68257813 -215.3515625 445.00390625 C-218.41174103 442.68846144 -221.64617851 440.84274913 -225 439 C-226.12277344 438.35160156 -227.24554688 437.70320313 -228.40234375 437.03515625 C-266.61833364 415.46665026 -313.17131529 420.4466793 -348 446 Z " fill="#030303" transform="translate(580,0)"/>
<path d="M0 0 C0.66 0 1.32 0 2 0 C2 11.88 2 23.76 2 36 C-28.03 36 -58.06 36 -89 36 C-89 34.02 -89 32.04 -89 30 C-88.67 31.32 -88.34 32.64 -88 34 C-58.96 34 -29.92 34 0 34 C0 22.78 0 11.56 0 0 Z " fill="#666666" transform="translate(669,385)"/>
<path d="M0 0 C2.28268066 1.33812314 2.87080937 2.62979921 3.8125 5.0625 C1.8325 4.0725 -0.1475 3.0825 -2.1875 2.0625 C-2.40555298 2.60521545 -2.62360596 3.14793091 -2.8482666 3.70709229 C-4.63942928 6.85734107 -7.06371518 9.21726803 -9.61523438 11.74902344 C-10.16826736 12.30556107 -10.72130035 12.86209869 -11.29109192 13.4355011 C-13.11615281 15.26934825 -14.94841264 17.09580243 -16.78125 18.921875 C-18.05184736 20.19381952 -19.3221477 21.46606081 -20.59216309 22.73858643 C-23.25204866 25.40141873 -25.91551407 28.060604 -28.58154297 30.71728516 C-32.00503195 34.12935673 -35.41943403 37.55035855 -38.83123016 40.97411728 C-41.45092749 43.60102554 -44.07534973 46.22317145 -46.70124817 48.8438797 C-47.9626617 50.10395582 -49.22258229 51.36552824 -50.48100281 52.62859344 C-52.23580876 54.38845453 -53.99685587 56.14181671 -55.75976562 57.89355469 C-56.28242508 58.4202626 -56.80508453 58.94697052 -57.34358215 59.48963928 C-60.95896834 63.0625 -60.95896834 63.0625 -63.1875 63.0625 C-62.1975 65.0425 -61.2075 67.0225 -60.1875 69.0625 C-62.62020079 68.12080937 -63.91187686 67.53268066 -65.25 65.25 C-65.1875 63.0625 -65.1875 63.0625 -63.0625 60.5625 C-61.35353818 59.07644625 -59.61283314 57.62393845 -57.8125 56.25 C-54.8135881 53.75090675 -52.41790886 50.97714368 -49.8828125 48.01953125 C-46.30921374 43.89424789 -42.43656216 40.46174973 -38.1875 37.0625 C-36.49987149 35.4170622 -34.8334651 33.74961423 -33.1875 32.0625 C-32.341875 31.2375 -31.49625 30.4125 -30.625 29.5625 C-28.19293753 27.16859032 -28.19293753 27.16859032 -26.375 24.6875 C-23.87590675 21.6885881 -21.10214368 19.29290886 -18.14453125 16.7578125 C-14.86526552 13.91709129 -11.89755478 10.95006847 -9.1875 7.5625 C-3.21089181 0.09173977 -3.21089181 0.09173977 0 0 Z " fill="#B4B4B4" transform="translate(509.1875,28.9375)"/>
<path d="M0 0 C3.56145023 1.51653105 5.85630225 3.6030054 8.58496094 6.32617188 C9.48559265 7.22049927 10.38622437 8.11482666 11.31414795 9.03625488 C12.28781273 10.0134985 13.26121561 10.99100311 14.234375 11.96875 C15.23727681 12.97030424 16.24047532 13.97156145 17.24395752 14.97253418 C19.34185055 17.06748299 21.43609383 19.16599615 23.52783203 21.26708984 C26.21349788 23.96417928 28.90808178 26.65215186 31.60543442 29.3375473 C33.67646736 31.40136783 35.74273116 33.46991001 37.80756378 35.53993225 C38.79969595 36.53340111 39.79332289 37.52537947 40.78844452 38.51585388 C42.1746643 39.89701561 43.55382699 41.28524951 44.93261719 42.67382812 C45.71997253 43.46277466 46.50732788 44.25172119 47.31854248 45.0645752 C49 47 49 47 49 49 C48.34 49 47.68 49 47 49 C45.44921875 47.42578125 45.44921875 47.42578125 43.6875 45.3125 C40.91715219 42.05461686 38.066393 38.98569845 35 36 C33.3318809 34.33478703 31.66548673 32.66784577 30 31 C28.94799998 29.94783336 27.89591287 28.89575379 26.84375 27.84375 C20.15625 21.15625 20.15625 21.15625 18.54125977 19.54101562 C17.11011598 18.11009854 15.67813947 16.68001444 14.24609375 15.25 C12.6751558 13.67632998 11.11477763 12.09207962 9.5625 10.5 C6.81915715 7.82356795 3.97119711 5.41841625 1 3 C0.34 3.66 -0.32 4.32 -1 5 C-0.67 3.35 -0.34 1.7 0 0 Z " fill="#C0C0C0" transform="translate(451,334)"/>
<path d="M0 0 C7.48522859 3.44352849 12.05873163 10.17702456 16.875 16.625 C17.36363525 17.27041748 17.85227051 17.91583496 18.35571289 18.58081055 C20.85922747 22.00391157 22.61665131 24.64982578 23 29 C20.46175924 26.73371361 18.86674972 24.75985981 17.203125 21.76171875 C15.04534611 17.90315562 12.40866296 14.68786408 9.5 11.375 C8.55148277 10.27916538 7.60355661 9.18281883 6.65625 8.0859375 C6.20765625 7.56870117 5.7590625 7.05146484 5.296875 6.51855469 C3.47745199 4.38813091 1.73397299 2.20018271 0 0 Z " fill="#A0A0A0" transform="translate(372,451)"/>
<path d="M0 0 C0 4.25491168 -2.47159742 6.07313316 -5.25 9 C-5.98669922 9.80050781 -5.98669922 9.80050781 -6.73828125 10.6171875 C-9.31357494 13.37790233 -11.88308798 15.8626889 -15 18 C-13.8545847 12.8896856 -12.54521255 8.62765919 -10 4 C-9 7 -9 7 -9 10 C-6.03 6.7 -3.06 3.4 0 0 Z " fill="#9E9E9E" transform="translate(477,292)"/>
<path d="M0 0 C0 3 0 3 -1.26586914 4.63818359 C-1.84973389 5.21906738 -2.43359863 5.79995117 -3.03515625 6.3984375 C-3.68033203 7.04296875 -4.32550781 7.6875 -4.99023438 8.3515625 C-5.67408203 9.01929688 -6.35792969 9.68703125 -7.0625 10.375 C-7.71927734 11.035 -8.37605469 11.695 -9.05273438 12.375 C-13.11678379 16.39500553 -17.25894226 19.80641364 -22 23 C-22.66 22.67 -23.32 22.34 -24 22 C-22.7625 20.9790625 -22.7625 20.9790625 -21.5 19.9375 C-20.33170277 18.96027942 -19.16517663 17.9809393 -18 17 C-17.39671875 16.49210938 -16.7934375 15.98421875 -16.171875 15.4609375 C-10.49388104 10.59078821 -5.23899873 5.33561961 0 0 Z " fill="#CCCCCC" transform="translate(384,603)"/>
<path d="M0 0 C1 2 1 2 0.42675781 3.96777344 C0.10545898 4.75700195 -0.21583984 5.54623047 -0.546875 6.359375 C-0.8975 7.22820312 -1.248125 8.09703125 -1.609375 8.9921875 C-1.98578125 9.90226562 -2.3621875 10.81234375 -2.75 11.75 C-3.1109375 12.64460938 -3.471875 13.53921875 -3.84375 14.4609375 C-5.72270944 19.07664222 -7.68965782 23.5840295 -10 28 C-10.96398189 25.42938162 -11.08936519 24.25873351 -10.1796875 21.625 C-9.74914062 20.75875 -9.31859375 19.8925 -8.875 19 C-6.38946005 13.84840604 -4.16780413 8.634657 -2.015625 3.3359375 C-1 1 -1 1 0 0 Z " fill="#A0A0A0" transform="translate(39,383)"/>
<path d="M0 0 C2.28268066 1.33812314 2.87080937 2.62979921 3.8125 5.0625 C1.8325 4.0725 -0.1475 3.0825 -2.1875 2.0625 C-2.39117187 2.59359375 -2.59484375 3.1246875 -2.8046875 3.671875 C-4.78255609 7.09124104 -7.49076899 9.57587921 -10.3125 12.3125 C-10.87582031 12.86679687 -11.43914062 13.42109375 -12.01953125 13.9921875 C-13.40436028 15.35354485 -14.79533204 16.70864859 -16.1875 18.0625 C-16.1875 15.0625 -16.1875 15.0625 -13.9375 12.6875 C-13.03 11.82125 -12.1225 10.955 -11.1875 10.0625 C-10.5275 9.2375 -9.8675 8.4125 -9.1875 7.5625 C-3.21089181 0.09173977 -3.21089181 0.09173977 0 0 Z " fill="#BBBBBB" transform="translate(509.1875,28.9375)"/>
<path d="M0 0 C5.16147524 2.17928954 10.26134837 4.47549115 15.3515625 6.81640625 C17.87796017 7.94546008 20.42367929 8.99086355 23 10 C23 10.33 23 10.66 23 11 C17.08732203 10.51051418 12.77453032 8.69849319 7.5625 5.9375 C6.83095703 5.56044922 6.09941406 5.18339844 5.34570312 4.79492188 C3.55906047 3.87240704 1.77884171 2.9374688 0 2 C0 1.34 0 0.68 0 0 Z " fill="#919191" transform="translate(535,562)"/>
<path d="M0 0 C2.475 0.495 2.475 0.495 5 1 C5 1.66 5 2.32 5 3 C5.556875 3.17015625 6.11375 3.3403125 6.6875 3.515625 C12.09590609 5.23315937 16.98062896 7.35342255 22 10 C22 10.33 22 10.66 22 11 C16.31863917 10.52533618 12.47998182 8.98687604 7.625 6.0625 C6.99722656 5.70220703 6.36945313 5.34191406 5.72265625 4.97070312 C1.1424513 2.2849026 1.1424513 2.2849026 0 0 Z " fill="#ABABAB" transform="translate(237,626)"/>
<path d="M0 0 C0.66 0 1.32 0 2 0 C1.30719393 6.2352546 -5.01985862 9.93810091 -9.546875 13.66796875 C-11.12779183 14.9579691 -11.12779183 14.9579691 -12 17 C-13.32 16.67 -14.64 16.34 -16 16 C-15.34773438 15.5153125 -14.69546875 15.030625 -14.0234375 14.53125 C-8.89097745 10.59484996 -4.73490736 6.87834833 -1.15625 1.46875 C-0.7746875 0.9840625 -0.393125 0.499375 0 0 Z " fill="#9B9B9B" transform="translate(325,298)"/>
<path d="M0 0 C4.32504836 1.65863505 7.09418825 4.871041 10.25 8.125 C11.08144531 8.96998047 11.08144531 8.96998047 11.9296875 9.83203125 C13.29104485 11.21686028 14.64614859 12.60783204 16 14 C13 14 13 14 10.75 11.875 C9.8425 10.92625 8.935 9.9775 8 9 C5.70092729 6.95903525 3.35553051 4.97538726 1 3 C0.34 3.66 -0.32 4.32 -1 5 C-0.67 3.35 -0.34 1.7 0 0 Z " fill="#B5B5B5" transform="translate(451,334)"/>
<path d="M0 0 C7.56878669 1.36486317 16.40520527 3.40520527 22 9 C16.69981613 8.40644629 12.41863107 6.62627368 7.625 4.4375 C6.88894531 4.10814453 6.15289062 3.77878906 5.39453125 3.43945312 C3.59355443 2.63252195 1.79637819 1.8171174 0 1 C0 0.67 0 0.34 0 0 Z " fill="#A2A2A2" transform="translate(435,269)"/>
<path d="M0 0 C1.3125 1.8125 1.3125 1.8125 2 4 C1.625 6.25 1.625 6.25 1 8 C-0.485 5.03 -0.485 5.03 -2 2 C-3.0725 2.350625 -4.145 2.70125 -5.25 3.0625 C-8.78720743 3.94680186 -9.74811124 4.02880551 -13 3 C-11.5903653 2.29819469 -10.17192359 1.61406042 -8.75 0.9375 C-7.96109375 0.55464844 -7.1721875 0.17179687 -6.359375 -0.22265625 C-3.71302422 -1.09454997 -2.55217179 -1.04990875 0 0 Z " fill="#939393" transform="translate(551,363)"/>
<path d="M0 0 C0 0.66 0 1.32 0 2 C-3.76300374 3.25433458 -7.27210909 3.10695422 -11.1875 3.0625 C-11.93708984 3.05798828 -12.68667969 3.05347656 -13.45898438 3.04882812 C-15.30602383 3.03706354 -17.15302213 3.01912865 -19 3 C-19 2.67 -19 2.34 -19 2 C-16.58374679 1.66340751 -14.16707192 1.33061612 -11.75 1 C-10.72712891 0.85691406 -10.72712891 0.85691406 -9.68359375 0.7109375 C-6.40628012 0.2654774 -3.31615847 0 0 0 Z " fill="#747474" transform="translate(487,386)"/>
<path d="M0 0 C2.85637299 5.27330399 5.57228292 10.89564881 5 17 C1.86140926 13.86140926 0.18478201 10.16081823 -0.19140625 5.76171875 C-0.18799305 3.84008939 -0.10099876 1.91897636 0 0 Z " fill="#A1A1A1" transform="translate(445,718)"/>
<path d="M0 0 C-2.77753377 1.44558008 -5.54539908 2.65035413 -8.5 3.6875 C-9.2528125 3.95949219 -10.005625 4.23148438 -10.78125 4.51171875 C-13.23597493 5.0519311 -14.64423338 4.79774824 -17 4 C-11.15439723 1.36536213 -6.45512034 -0.56131481 0 0 Z " fill="#919191" transform="translate(613,133)"/>
<path d="M0 0 C-1.72601379 0.81917642 -3.4559647 1.63006016 -5.1875 2.4375 C-6.63189453 3.11619141 -6.63189453 3.11619141 -8.10546875 3.80859375 C-10.76631586 4.90381422 -13.16784755 5.54954796 -16 6 C-14.55625108 3.11250216 -12.58631039 2.6524799 -9.6875 1.3125 C-8.72199219 0.85488281 -7.75648438 0.39726562 -6.76171875 -0.07421875 C-3.90125812 -1.03310018 -2.75742037 -1.08069919 0 0 Z " fill="#9D9D9D" transform="translate(147,276)"/>
<path d="M0 0 C6.12096691 1.05486051 10.75506674 2.65217026 16 6 C14 7 14 7 11.7578125 6.328125 C10.88898438 5.97234375 10.02015625 5.6165625 9.125 5.25 C8.26132812 4.90453125 7.39765625 4.5590625 6.5078125 4.203125 C4.06520032 3.03127991 2.10047599 1.6999201 0 0 Z " fill="#9A9A9A" transform="translate(366,240)"/>
<path d="M0 0 C0 0.66 0 1.32 0 2 C0.66 2.66 1.32 3.32 2 4 C-2.455 5.485 -2.455 5.485 -7 7 C-7 5 -7 5 -4.625 2.375 C-2 0 -2 0 0 0 Z " fill="#A9A9A9" transform="translate(536,364)"/>
<path d="M0 0 C0 0.66 0 1.32 0 2 C-8.42857143 4.28571429 -8.42857143 4.28571429 -13 4 C-8.66957446 0.44286474 -5.53947792 -0.15387439 0 0 Z " fill="#979797" transform="translate(469,680)"/>
<path d="M0 0 C0.66 0.33 1.32 0.66 2 1 C-6.261959 8.66742597 -6.261959 8.66742597 -11 10 C-8.11913077 6.01110415 -5.16664294 3.59257783 -1 1 C-0.67 0.67 -0.34 0.34 0 0 Z " fill="#AEAEAE" transform="translate(371,616)"/>
<path d="M0 0 C4.95 0.99 9.9 1.98 15 3 C15 3.33 15 3.66 15 4 C13.25034642 4.05429959 11.50020213 4.09292823 9.75 4.125 C8.77546875 4.14820313 7.8009375 4.17140625 6.796875 4.1953125 C3.9803502 3.99862781 2.39050964 3.44568916 0 2 C0 1.34 0 0.68 0 0 Z " fill="#9E9E9E" transform="translate(779,161)"/>
<path d="M0 0 C1 2 1 2 0.29296875 4.34765625 C-0.07183594 5.24355469 -0.43664062 6.13945313 -0.8125 7.0625 C-1.16957031 7.96097656 -1.52664063 8.85945312 -1.89453125 9.78515625 C-3 12 -3 12 -5 13 C-4.39254603 8.14036821 -2.27241033 4.2594482 0 0 Z " fill="#A6A6A6" transform="translate(565,665)"/>
<path d="M0 0 C3.2626876 3.08632611 6.02235218 5.93483504 8 10 C7.67 10.66 7.34 11.32 7 12 C2 6.25 2 6.25 2 4 C1.34 4 0.68 4 0 4 C0 2.68 0 1.36 0 0 Z " fill="#A5A5A5" transform="translate(202,588)"/>
<path d="M0 0 C2.64492308 1.32246154 2.97833787 2.64535898 4.1875 5.3125 C4.55230469 6.09238281 4.91710937 6.87226563 5.29296875 7.67578125 C6.07807525 10.2566562 5.89937661 11.49663962 5 14 C4.16235732 12.04350603 3.33000941 10.08474444 2.5 8.125 C2.0359375 7.03445313 1.571875 5.94390625 1.09375 4.8203125 C0 2 0 2 0 0 Z " fill="#9F9F9F" transform="translate(553,372)"/>
<path d="M0 0 C-2.85021875 2.32240046 -5.46355091 3.93906527 -9 5 C-11.15625 4.546875 -11.15625 4.546875 -13 4 C-4.738041 -0.59225513 -4.738041 -0.59225513 0 0 Z " fill="#A1A1A1" transform="translate(189,258)"/>
<path d="M0 0 C2.00130916 2.54712074 3.85727656 4.9527375 5 8 C4.546875 10.125 4.546875 10.125 4 12 C3.32332002 10.75539217 2.65905281 9.50403104 2 8.25 C1.62875 7.55390625 1.2575 6.8578125 0.875 6.140625 C0 4 0 4 0 0 Z " fill="#979797" transform="translate(40,686)"/>
<path d="M0 0 C0.57234375 0.21527344 1.1446875 0.43054688 1.734375 0.65234375 C0.30425527 1.51881042 -1.13503119 2.37016204 -2.578125 3.21484375 C-3.77888672 3.92833984 -3.77888672 3.92833984 -5.00390625 4.65625 C-7.265625 5.65234375 -7.265625 5.65234375 -10.265625 4.65234375 C-9.02618224 3.78292881 -7.77355441 2.93228918 -6.515625 2.08984375 C-5.81953125 1.61417969 -5.1234375 1.13851563 -4.40625 0.6484375 C-2.265625 -0.34765625 -2.265625 -0.34765625 0 0 Z " fill="#A5A5A5" transform="translate(548.265625,500.34765625)"/>
<path d="M0 0 C1.5 1.1875 1.5 1.1875 3 3 C3.1875 5.6875 3.1875 5.6875 3 8 C1.02 8.33 -0.96 8.66 -3 9 C-1.68 8.34 -0.36 7.68 1 7 C0.67 4.69 0.34 2.38 0 0 Z " fill="#9D9D9D" transform="translate(595,474)"/>
<path d="M0 0 C1.41791408 0.45445964 2.83428046 0.91374944 4.25 1.375 C5.43335938 1.75785156 5.43335938 1.75785156 6.640625 2.1484375 C8.86627958 2.95173667 10.90931672 3.89711662 13 5 C12.67 5.66 12.34 6.32 12 7 C7.69235185 5.43358249 3.93828536 3.31663844 0 1 C0 0.67 0 0.34 0 0 Z " fill="#999999" transform="translate(655,138)"/>
<path d="M0 0 C5.28798182 0.41474367 8.11690718 1.35224614 12 5 C7.43545749 4.45660208 4.0271824 3.20536179 0 1 C0 0.67 0 0.34 0 0 Z " fill="#A8A8A8" transform="translate(220,823)"/>
<path d="M0 0 C0.66 0 1.32 0 2 0 C4.61588503 3.55760365 5.49357808 6.64477147 6 11 C3.46166551 9.73083275 3.10599099 8.58375191 1.875 6.0625 C1.52179688 5.35222656 1.16859375 4.64195312 0.8046875 3.91015625 C0 2 0 2 0 0 Z " fill="#AFAFAF" transform="translate(397,485)"/>
<path d="M0 0 C3.30045979 3.30045979 5.12144594 7.43151889 6 12 C3.34930567 9.52601863 1.28384156 7.42357749 0 4 C0 2.68 0 1.36 0 0 Z " fill="#979797" transform="translate(766,279)"/>
<path d="M0 0 C2.97 1.98 2.97 1.98 6 4 C5.34 5.32 4.68 6.64 4 8 C3.01 8 2.02 8 1 8 C1.66 6.35 2.32 4.7 3 3 C2.01 2.67 1.02 2.34 0 2 C0 1.34 0 0.68 0 0 Z " fill="#A7A7A7" transform="translate(801,89)"/>
<path d="M0 0 C0.53625 0.2475 1.0725 0.495 1.625 0.75 C-3.55078125 3.97265625 -3.55078125 3.97265625 -5.375 4.75 C-6.365 4.42 -7.355 4.09 -8.375 3.75 C-2.95961538 -0.31153846 -2.95961538 -0.31153846 0 0 Z " fill="#AFAFAF" transform="translate(253.375,432.25)"/>
<path d="M0 0 C0 3 0 3 -1.3125 4.60546875 C-1.869375 5.12753906 -2.42625 5.64960938 -3 6.1875 C-3.556875 6.71730469 -4.11375 7.24710937 -4.6875 7.79296875 C-5.120625 8.19128906 -5.55375 8.58960938 -6 9 C-6.66 8.67 -7.32 8.34 -8 8 C-5.58443874 4.80800833 -3.31996462 2.25283313 0 0 Z " fill="#898989" transform="translate(684,261)"/>
<path d="M0 0 C0.66 0.33 1.32 0.66 2 1 C-0.64 3.64 -3.28 6.28 -6 9 C-6 6 -6 6 -3.5625 3.375 C-2.716875 2.59125 -1.87125 1.8075 -1 1 C-0.67 0.67 -0.34 0.34 0 0 Z " fill="#ACACAC" transform="translate(471,66)"/>
<path d="M0 0 C3.95820859 0.56545837 6.6659053 1.80902348 10 4 C9.01 4.495 9.01 4.495 8 5 C6.0546875 4.22265625 6.0546875 4.22265625 3.875 3.0625 C3.15054687 2.68222656 2.42609375 2.30195313 1.6796875 1.91015625 C1.12539063 1.60980469 0.57109375 1.30945313 0 1 C0 0.67 0 0.34 0 0 Z " fill="#B6B6B6" transform="translate(344,433)"/>
<path d="M0 0 C0.66 0.33 1.32 0.66 2 1 C-1.465 3.97 -1.465 3.97 -5 7 C-5.66 6.67 -6.32 6.34 -7 6 C-4.69 4.02 -2.38 2.04 0 0 Z " fill="#A5A5A5" transform="translate(232,444)"/>
<path d="M0 0 C0.99 0.33 1.98 0.66 3 1 C0.69 2.65 -1.62 4.3 -4 6 C-4.66 5.67 -5.32 5.34 -6 5 C-1.60546875 0.99609375 -1.60546875 0.99609375 0 0 Z " fill="#A7A7A7" transform="translate(240,438)"/>
</svg>
